<svg width="37" height="37" viewBox="0 0 37 37" fill="none" xmlns="http://www.w3.org/2000/svg">
<g id="Multimedia / add image">
<path id="Vector" d="M29.2916 15.4168C28.8827 15.4168 28.4906 15.5793 28.2015 15.8684C27.9123 16.1575 27.7499 16.5496 27.7499 16.9585V22.1693L25.4683 19.8877C24.6626 19.0884 23.5737 18.6399 22.4389 18.6399C21.304 18.6399 20.2151 19.0884 19.4095 19.8877L18.3303 20.9822L14.507 17.1435C13.7014 16.3442 12.6125 15.8957 11.4776 15.8957C10.3428 15.8957 9.25389 16.3442 8.44825 17.1435L6.16659 19.4406V10.7918C6.16659 10.383 6.32901 9.99083 6.61813 9.70171C6.90725 9.41259 7.29938 9.25016 7.70825 9.25016H20.0416C20.4505 9.25016 20.8426 9.08774 21.1317 8.79862C21.4208 8.5095 21.5833 8.11737 21.5833 7.7085C21.5833 7.29962 21.4208 6.90749 21.1317 6.61837C20.8426 6.32926 20.4505 6.16683 20.0416 6.16683H7.70825C6.48163 6.16683 5.30524 6.65411 4.43788 7.52146C3.57053 8.38882 3.08325 9.5652 3.08325 10.7918V29.631C3.08731 30.7664 3.54016 31.8542 4.34303 32.6571C5.1459 33.4599 6.23366 33.9128 7.36909 33.9168H26.5474C26.9652 33.9135 27.3804 33.8512 27.7808 33.7318C28.671 33.4821 29.4547 32.9473 30.0116 32.2093C30.5686 31.4713 30.8681 30.571 30.8641 29.6464V16.9585C30.8641 16.7534 30.8233 16.5504 30.7439 16.3613C30.6645 16.1722 30.5481 16.0009 30.4017 15.8573C30.2553 15.7138 30.0816 15.6009 29.891 15.5252C29.7004 15.4496 29.4966 15.4127 29.2916 15.4168ZM7.70825 30.8335C7.29938 30.8335 6.90725 30.6711 6.61813 30.382C6.32901 30.0928 6.16659 29.7007 6.16659 29.2918V23.7881L10.622 19.3327C10.8473 19.1086 11.1522 18.9828 11.4699 18.9828C11.7877 18.9828 12.0925 19.1086 12.3178 19.3327L23.8341 30.8335H7.70825ZM27.7499 29.2918C27.74 29.5904 27.6436 29.8796 27.4724 30.1243L20.5041 23.1252L21.5987 22.046C21.7092 21.9332 21.8411 21.8436 21.9867 21.7824C22.1323 21.7212 22.2887 21.6897 22.4466 21.6897C22.6045 21.6897 22.7609 21.7212 22.9065 21.7824C23.0521 21.8436 23.184 21.9332 23.2945 22.046L27.7499 26.5322V29.2918ZM32.3749 6.16683H30.8333V4.62516C30.8333 4.21629 30.6708 3.82416 30.3817 3.53504C30.0926 3.24592 29.7005 3.0835 29.2916 3.0835C28.8827 3.0835 28.4906 3.24592 28.2015 3.53504C27.9123 3.82416 27.7499 4.21629 27.7499 4.62516V6.16683H26.2083C25.7994 6.16683 25.4072 6.32926 25.1181 6.61837C24.829 6.90749 24.6666 7.29962 24.6666 7.7085C24.6666 8.11737 24.829 8.5095 25.1181 8.79862C25.4072 9.08774 25.7994 9.25016 26.2083 9.25016H27.7499V10.7918C27.7499 11.2007 27.9123 11.5928 28.2015 11.882C28.4906 12.1711 28.8827 12.3335 29.2916 12.3335C29.7005 12.3335 30.0926 12.1711 30.3817 11.882C30.6708 11.5928 30.8333 11.2007 30.8333 10.7918V9.25016H32.3749C32.7838 9.25016 33.1759 9.08774 33.465 8.79862C33.7542 8.5095 33.9166 8.11737 33.9166 7.7085C33.9166 7.29962 33.7542 6.90749 33.465 6.61837C33.1759 6.32926 32.7838 6.16683 32.3749 6.16683Z" fill="#526D82"/>
</g>
</svg>
