<svg width="35" height="35" viewBox="0 0 35 35" fill="none" xmlns="http://www.w3.org/2000/svg">
<g id="User Interface / Close" clip-path="url(#clip0_2150_8777)">
<path id="Vector" d="M12.1043 17.2333C12.0971 17.3651 12.116 17.497 12.16 17.6215C12.204 17.746 12.2722 17.8605 12.3607 17.9585C12.4492 18.0564 12.5562 18.1359 12.6755 18.1923C12.7949 18.2487 12.9242 18.2809 13.0561 18.2871L16.2979 18.445L16.1259 21.6861C16.1123 21.952 16.205 22.2125 16.3835 22.4101C16.562 22.6077 16.8117 22.7264 17.0776 22.7399C17.3436 22.7534 17.604 22.6608 17.8017 22.4823C17.9993 22.3038 18.1179 22.0541 18.1315 21.7881L18.2894 18.5464L21.5304 18.7184C21.6622 18.7256 21.7942 18.7067 21.9186 18.6627C22.0431 18.6187 22.1576 18.5505 22.2556 18.462C22.3536 18.3735 22.433 18.2665 22.4895 18.1472C22.5459 18.0278 22.5781 17.8985 22.5842 17.7666C22.5915 17.6348 22.5726 17.5029 22.5286 17.3784C22.4846 17.2539 22.4164 17.1394 22.3279 17.0414C22.2394 16.9435 22.1324 16.864 22.013 16.8076C21.8937 16.7512 21.7644 16.719 21.6325 16.7128L18.3907 16.5549L18.5627 13.3138C18.57 13.182 18.551 13.0501 18.507 12.9256C18.4631 12.8011 18.3948 12.6866 18.3064 12.5886C18.2179 12.4907 18.1109 12.4112 17.9915 12.3548C17.8722 12.2984 17.7428 12.2662 17.611 12.26C17.4791 12.2527 17.3472 12.2717 17.2227 12.3157C17.0983 12.3597 16.9838 12.4279 16.8858 12.5164C16.7878 12.6048 16.7083 12.7118 16.6519 12.8312C16.5955 12.9506 16.5633 13.0799 16.5571 13.2118L16.3992 16.4535L13.1582 16.2815C13.0264 16.2743 12.8944 16.2932 12.77 16.3372C12.6455 16.3812 12.531 16.4494 12.433 16.5379C12.335 16.6264 12.2555 16.7334 12.1991 16.8527C12.1427 16.9721 12.1105 17.1014 12.1043 17.2333ZM7.35873 16.9918C7.26821 18.3165 7.44243 19.6461 7.87122 20.9028C8.30001 22.1595 8.9748 23.3182 9.85619 24.3113C10.7376 25.3044 11.8079 26.1121 13.0048 26.6871C14.2017 27.2622 15.5011 27.5931 16.8272 27.6606C18.1533 27.7281 19.4796 27.5308 20.7287 27.0802C21.9778 26.6296 23.1246 25.9348 24.1022 25.0363C25.0799 24.1378 25.8688 23.0535 26.423 21.8469C26.9771 20.6402 27.2854 19.3352 27.3299 18.0081C27.4204 16.6834 27.2462 15.3538 26.8174 14.0971C26.3886 12.8404 25.7138 11.6817 24.8324 10.6886C23.951 9.69545 22.8806 8.8878 21.6838 8.31276C20.4869 7.73772 19.1875 7.4068 17.8614 7.33931C16.5352 7.27183 15.209 7.46913 13.9599 7.91969C12.7108 8.37026 11.564 9.06508 10.5863 9.9636C9.60868 10.8621 8.81976 11.9464 8.2656 13.153C7.71145 14.3597 7.40316 15.6647 7.35873 16.9918ZM17.7511 9.50584C19.5995 9.59888 21.3585 10.3299 22.7284 11.5744C24.0983 12.8189 24.9942 14.4999 25.2637 16.331C25.5332 18.162 25.1594 20.0298 24.2062 21.6162C23.2529 23.2026 21.7791 24.4094 20.0359 25.031C18.2926 25.6526 16.3878 25.6506 14.6459 25.0252C12.904 24.3999 11.4327 23.1899 10.4829 21.6015C9.53305 20.013 9.16333 18.1444 9.43673 16.314C9.71013 14.4835 10.6097 12.8045 11.9823 11.5629C12.7601 10.8556 13.6704 10.3096 14.6606 9.95654C15.6509 9.60345 16.7013 9.45026 17.7511 9.50584Z" fill="#525252"/>
</g>
<defs>
<clipPath id="clip0_2150_8777">
<rect width="24" height="24" fill="white" transform="translate(16.4819 34.4487) rotate(-132.087)"/>
</clipPath>
</defs>
</svg>
