<svg width="38" height="38" viewBox="0 0 38 38" fill="none" xmlns="http://www.w3.org/2000/svg">
<path d="M13.7908 12.2068L17.4166 8.5651V23.7493C17.4166 24.1692 17.5834 24.5719 17.8804 24.8689C18.1773 25.1658 18.58 25.3326 19 25.3326C19.4199 25.3326 19.8226 25.1658 20.1195 24.8689C20.4165 24.5719 20.5833 24.1692 20.5833 23.7493V8.5651L24.2091 12.2068C24.3563 12.3552 24.5314 12.473 24.7244 12.5533C24.9173 12.6337 25.1243 12.6751 25.3333 12.6751C25.5423 12.6751 25.7493 12.6337 25.9422 12.5533C26.1351 12.473 26.3103 12.3552 26.4575 12.2068C26.6059 12.0596 26.7237 11.8845 26.804 11.6915C26.8844 11.4986 26.9258 11.2916 26.9258 11.0826C26.9258 10.8736 26.8844 10.6666 26.804 10.4737C26.7237 10.2807 26.6059 10.1056 26.4575 9.95843L20.1241 3.6251C19.9735 3.48095 19.796 3.36796 19.6016 3.2926C19.2161 3.13424 18.7838 3.13424 18.3983 3.2926C18.2039 3.36796 18.0264 3.48095 17.8758 3.6251L11.5425 9.95843C11.3948 10.1061 11.2777 10.2813 11.1978 10.4742C11.1179 10.6671 11.0768 10.8738 11.0768 11.0826C11.0768 11.2914 11.1179 11.4981 11.1978 11.691C11.2777 11.8839 11.3948 12.0591 11.5425 12.2068C11.6901 12.3544 11.8653 12.4715 12.0582 12.5514C12.2511 12.6313 12.4578 12.6724 12.6666 12.6724C12.8754 12.6724 13.0821 12.6313 13.275 12.5514C13.4679 12.4715 13.6432 12.3544 13.7908 12.2068ZM33.25 22.1659C32.83 22.1659 32.4273 22.3327 32.1304 22.6297C31.8334 22.9266 31.6666 23.3293 31.6666 23.7493V30.0826C31.6666 30.5025 31.4998 30.9053 31.2029 31.2022C30.9059 31.4991 30.5032 31.6659 30.0833 31.6659H7.91663C7.4967 31.6659 7.09397 31.4991 6.79704 31.2022C6.50011 30.9053 6.33329 30.5025 6.33329 30.0826V23.7493C6.33329 23.3293 6.16648 22.9266 5.86954 22.6297C5.57261 22.3327 5.16989 22.1659 4.74996 22.1659C4.33003 22.1659 3.92731 22.3327 3.63037 22.6297C3.33344 22.9266 3.16663 23.3293 3.16663 23.7493V30.0826C3.16663 31.3424 3.66707 32.5506 4.55787 33.4414C5.44867 34.3322 6.65685 34.8326 7.91663 34.8326H30.0833C31.3431 34.8326 32.5513 34.3322 33.442 33.4414C34.3328 32.5506 34.8333 31.3424 34.8333 30.0826V23.7493C34.8333 23.3293 34.6665 22.9266 34.3695 22.6297C34.0726 22.3327 33.6699 22.1659 33.25 22.1659Z" fill="#252F40"/>
</svg>
