<svg width="20" height="20" viewBox="0 0 20 20" fill="none" xmlns="http://www.w3.org/2000/svg">
<path d="M17.9417 5.95833C17.815 5.88519 17.6713 5.84669 17.525 5.84669C17.3787 5.84669 17.235 5.88519 17.1084 5.95833L14.1667 7.40833C14.1429 6.76131 13.8691 6.14873 13.4028 5.69953C12.9365 5.25034 12.3141 4.99957 11.6667 5H4.16669C3.50365 5 2.86776 5.26339 2.39892 5.73223C1.93008 6.20107 1.66669 6.83696 1.66669 7.5V12.5C1.66669 13.163 1.93008 13.7989 2.39892 14.2678C2.86776 14.7366 3.50365 15 4.16669 15H11.6667C12.3141 15.0004 12.9365 14.7497 13.4028 14.3005C13.8691 13.8513 14.1429 13.2387 14.1667 12.5917L17.1334 14.075C17.2469 14.1332 17.3724 14.1646 17.5 14.1667C17.656 14.1672 17.8091 14.1239 17.9417 14.0417C18.0618 13.9666 18.1608 13.8622 18.2293 13.7382C18.2978 13.6143 18.3336 13.475 18.3334 13.3333V6.66667C18.3336 6.52505 18.2978 6.38569 18.2293 6.26175C18.1608 6.13782 18.0618 6.03339 17.9417 5.95833V5.95833ZM12.5 12.5C12.5 12.721 12.4122 12.933 12.2559 13.0893C12.0997 13.2455 11.8877 13.3333 11.6667 13.3333H4.16669C3.94567 13.3333 3.73371 13.2455 3.57743 13.0893C3.42115 12.933 3.33335 12.721 3.33335 12.5V7.5C3.33335 7.27899 3.42115 7.06703 3.57743 6.91074C3.73371 6.75446 3.94567 6.66667 4.16669 6.66667H11.6667C11.8877 6.66667 12.0997 6.75446 12.2559 6.91074C12.4122 7.06703 12.5 7.27899 12.5 7.5V12.5ZM16.6667 11.9833L14.1667 10.7333V9.26667L16.6667 8.01667V11.9833Z" fill="black"/>
</svg>
